<svg width="20" height="19" viewBox="0 0 20 19" fill="none" xmlns="http://www.w3.org/2000/svg">
<path d="M19.332 0.430627C19.0732 0.215289 18.7608 0.0741593 18.4281 0.0222575C18.0954 -0.0296442 17.7549 0.00962396 17.4428 0.135883L1.15063 6.71365C0.802212 6.857 0.505628 7.10292 0.300244 7.41877C0.09486 7.73462 -0.00961166 8.10547 0.000695441 8.48208C0.0110025 8.8587 0.135601 9.22327 0.357953 9.52741C0.580305 9.83156 0.889895 10.0609 1.24563 10.185L4.54117 11.3311L6.37804 17.4055C6.403 17.4866 6.43923 17.5639 6.48566 17.635C6.4927 17.6459 6.50264 17.654 6.51013 17.6646C6.56378 17.7394 6.6286 17.8056 6.70235 17.8607C6.72332 17.8767 6.7434 17.8917 6.76582 17.9059C6.85213 17.9632 6.9477 18.005 7.04831 18.0296L7.05907 18.0305L7.06517 18.0332C7.12566 18.0455 7.18722 18.0517 7.24895 18.0518C7.25489 18.0518 7.26016 18.049 7.26604 18.0489C7.35919 18.0472 7.45153 18.0312 7.53977 18.0013C7.5603 17.9943 7.57789 17.9826 7.59781 17.9742C7.66361 17.9469 7.72595 17.9119 7.78353 17.87C7.82964 17.8312 7.87577 17.7923 7.92191 17.7535L10.3785 15.0413L14.0425 17.8796C14.365 18.1307 14.7621 18.2672 15.1709 18.2675C15.5992 18.267 16.0144 18.1192 16.3467 17.8489C16.679 17.5787 16.9084 17.2024 16.9962 16.7831L19.9624 2.22223C20.0296 1.89451 20.0064 1.55468 19.8954 1.2391C19.7844 0.923522 19.5896 0.644065 19.332 0.430627ZM7.60943 11.6206C7.48338 11.7461 7.39721 11.9061 7.36174 12.0804L7.08036 13.4477L6.36756 11.0904L10.0633 9.1658L7.60943 11.6206ZM15.1567 16.4422L10.8268 13.0881C10.6457 12.9481 10.4185 12.8815 10.1904 12.9016C9.96236 12.9217 9.75025 13.0269 9.59634 13.1964L8.80958 14.0648L9.08763 12.7134L15.5269 6.27415C15.6806 6.12066 15.7742 5.91719 15.7909 5.70061C15.8075 5.48403 15.746 5.26866 15.6175 5.0935C15.4891 4.91834 15.3021 4.79499 15.0905 4.74578C14.879 4.69657 14.6568 4.72477 14.4642 4.82525L5.22278 9.63686L1.83691 8.39782L18.1814 1.85909L15.1567 16.4422Z" fill="white"/>
</svg>
