<svg width="22" height="22" viewBox="0 0 22 22" fill="none" xmlns="http://www.w3.org/2000/svg">
<path fill-rule="evenodd" clip-rule="evenodd" d="M10.75 1.5C5.64137 1.5 1.5 5.64137 1.5 10.75C1.5 15.8586 5.64137 20 10.75 20C15.8586 20 20 15.8586 20 10.75C20 5.64137 15.8586 1.5 10.75 1.5ZM0 10.75C0 4.81294 4.81294 0 10.75 0C16.6871 0 21.5 4.81294 21.5 10.75C21.5 16.6871 16.6871 21.5 10.75 21.5C4.81294 21.5 0 16.6871 0 10.75ZM10.75 7.65049C10.6311 7.82699 10.4845 8.08717 10.2664 8.47853L10.1353 8.71367C10.1255 8.73113 10.1155 8.74937 10.1051 8.76826C9.99654 8.96556 9.84904 9.23359 9.60546 9.41849C9.3574 9.60681 9.05824 9.67266 8.84436 9.71974C8.82405 9.72421 8.80452 9.72851 8.78587 9.73273L8.53132 9.79032C8.06615 9.89557 7.77625 9.96294 7.58146 10.031C7.7019 10.212 7.90408 10.451 8.23204 10.8345L8.40557 11.0374C8.41833 11.0524 8.43164 11.0678 8.44537 11.0837C8.59312 11.2547 8.78967 11.4822 8.88052 11.7744C8.97042 12.0635 8.93999 12.3626 8.91672 12.5912C8.91455 12.6126 8.91244 12.6333 8.9105 12.6534L8.88426 12.9241C8.83739 13.4077 8.80852 13.7206 8.80934 13.9419C9.00155 13.8738 9.26481 13.7542 9.66659 13.5692L9.90492 13.4595C9.92246 13.4514 9.94082 13.4428 9.95995 13.4339C10.1578 13.3413 10.4385 13.2099 10.75 13.2099C11.0615 13.2099 11.3422 13.3413 11.5401 13.4339C11.5592 13.4428 11.5775 13.4514 11.5951 13.4595L11.8334 13.5692C12.2352 13.7542 12.4984 13.8738 12.6907 13.9419C12.6915 13.7206 12.6626 13.4077 12.6157 12.9241L12.5895 12.6534C12.5876 12.6333 12.5855 12.6126 12.5833 12.5912C12.56 12.3626 12.5296 12.0635 12.6195 11.7744C12.7103 11.4822 12.9069 11.2547 13.0546 11.0837C13.0684 11.0678 13.0817 11.0524 13.0944 11.0374L13.268 10.8345C13.5959 10.451 13.7981 10.212 13.9185 10.031C13.7237 9.96294 13.4338 9.89557 12.9687 9.79032L12.7141 9.73273C12.6955 9.72851 12.6759 9.72421 12.6556 9.71974C12.4418 9.67266 12.1426 9.60681 11.8945 9.41849C11.651 9.23359 11.5035 8.96556 11.3949 8.76827C11.3845 8.74937 11.3745 8.73113 11.3647 8.71367L11.2336 8.47853C11.0155 8.08717 10.8689 7.82699 10.75 7.65049ZM12.9029 14.0002C12.9041 14.0002 12.9047 14.0003 12.9047 14.0003L12.9029 14.0002ZM8.59533 14.0003C8.59535 14.0003 8.59594 14.0002 8.59706 14.0002L8.59533 14.0003ZM9.63315 6.63484C9.84882 6.35321 10.201 6 10.75 6C11.299 6 11.6512 6.35321 11.8669 6.63484C12.0745 6.90604 12.2871 7.28751 12.5183 7.7024C12.5268 7.71761 12.5353 7.73287 12.5438 7.74817L12.6749 7.98332C12.7117 8.04934 12.7402 8.10037 12.7655 8.14412C12.7824 8.17352 12.7958 8.19573 12.8065 8.21286C12.8233 8.21751 12.8446 8.22302 12.8719 8.22967C12.9189 8.24111 12.9735 8.25351 13.0452 8.26971L13.2997 8.3273C13.3171 8.33123 13.3344 8.33514 13.3516 8.33905C13.7985 8.44009 14.2157 8.53439 14.5307 8.65852C14.8719 8.79302 15.2843 9.03543 15.4432 9.54638C15.5996 10.0492 15.4071 10.4832 15.2126 10.7921C15.0299 11.0823 14.7479 11.412 14.4416 11.7701L14.2344 12.0123C14.1857 12.0693 14.1481 12.1133 14.1162 12.1518C14.0901 12.1834 14.072 12.2062 14.059 12.2234C14.0607 12.2791 14.0679 12.3575 14.0825 12.5087L14.1137 12.8303C14.1602 13.3096 14.2026 13.747 14.1873 14.0915C14.1713 14.4494 14.0869 14.9285 13.6614 15.2515C13.2237 15.5837 12.7347 15.5189 12.3878 15.4195C12.0632 15.3265 11.6731 15.1469 11.2549 14.9542C11.2386 14.9467 11.2224 14.9392 11.2061 14.9317L10.9677 14.822C10.9007 14.7911 10.8494 14.7675 10.8048 14.7479C10.7829 14.7382 10.7649 14.7305 10.75 14.7244C10.7351 14.7305 10.7171 14.7382 10.6952 14.7479C10.6506 14.7675 10.5993 14.7911 10.5323 14.822L10.2939 14.9317C10.2776 14.9392 10.2614 14.9467 10.2451 14.9542C9.8269 15.1469 9.43685 15.3265 9.1122 15.4195C8.76533 15.5189 8.27629 15.5837 7.83858 15.2515C7.41311 14.9285 7.32866 14.4494 7.31272 14.0915C7.29737 13.747 7.33981 13.3096 7.38631 12.8304L7.41749 12.5087C7.43214 12.3575 7.43928 12.2791 7.44097 12.2234C7.42803 12.2062 7.40995 12.1834 7.38378 12.1518C7.35187 12.1133 7.31431 12.0693 7.26557 12.0123L7.09204 11.8094C7.08081 11.7963 7.0696 11.7832 7.05843 11.7701C6.75207 11.412 6.47006 11.0823 6.28738 10.7921C6.09293 10.4832 5.90045 10.0492 6.0568 9.54638C6.21569 9.03543 6.62805 8.79302 6.96935 8.65852C7.28433 8.53439 7.70146 8.44009 8.14837 8.33905C8.16563 8.33514 8.18295 8.33123 8.2003 8.3273L8.45484 8.26971C8.52645 8.25351 8.58113 8.24112 8.62814 8.22967C8.65542 8.22302 8.67669 8.21751 8.69352 8.21287C8.70424 8.19573 8.71756 8.17352 8.73455 8.14412C8.75982 8.10037 8.78829 8.04934 8.82509 7.98332L8.95617 7.74817C8.9647 7.73287 8.97321 7.71761 8.98169 7.70239C9.21289 7.28751 9.42547 6.90603 9.63315 6.63484Z" fill="#77DDAC"/>
</svg>
