<svg width="43" height="43" viewBox="0 0 43 43" fill="none" xmlns="http://www.w3.org/2000/svg">
<path d="M29.5607 17.5607C30.1464 16.9749 30.1464 16.0251 29.5607 15.4393C28.9749 14.8536 28.0251 14.8536 27.4393 15.4393L18.5 24.3787L15.5607 21.4393C14.9749 20.8536 14.0251 20.8536 13.4393 21.4393C12.8536 22.0251 12.8536 22.9749 13.4393 23.5607L17.4393 27.5607C18.0251 28.1464 18.9749 28.1464 19.5607 27.5607L29.5607 17.5607Z" fill="#13E17E"/>
<path fill-rule="evenodd" clip-rule="evenodd" d="M21.5 0C9.62588 0 0 9.62588 0 21.5C0 33.3741 9.62588 43 21.5 43C33.3741 43 43 33.3741 43 21.5C43 9.62588 33.3741 0 21.5 0ZM3 21.5C3 11.2827 11.2827 3 21.5 3C31.7173 3 40 11.2827 40 21.5C40 31.7173 31.7173 40 21.5 40C11.2827 40 3 31.7173 3 21.5Z" fill="#13E17E"/>
</svg>
