<svg width="22" height="22" viewBox="0 0 22 22" fill="none" xmlns="http://www.w3.org/2000/svg">
<path d="M1.5 0.75C1.5 0.335786 1.16421 0 0.75 0C0.335787 0 2.11539e-07 0.335786 2.11539e-07 0.75V10.8074C-1.26631e-05 13.1158 -2.28584e-05 14.9248 0.189747 16.3363C0.383986 17.781 0.789327 18.9211 1.68414 19.8159C2.57895 20.7107 3.71897 21.116 5.16371 21.3103C6.57519 21.5 8.38423 21.5 10.6926 21.5H20.75C21.1642 21.5 21.5 21.1642 21.5 20.75C21.5 20.3358 21.1642 20 20.75 20H10.75C8.37178 20 6.66356 19.9984 5.36358 19.8236C4.08517 19.6518 3.31445 19.3249 2.7448 18.7552C2.17514 18.1855 1.84825 17.4148 1.67637 16.1364C1.50159 14.8364 1.5 13.1282 1.5 10.75V0.75Z" fill="#44D991"/>
<path d="M18.3375 6.21641C18.5951 5.89204 18.541 5.42026 18.2166 5.16267C17.8922 4.90508 17.4204 4.95921 17.1628 5.28359L14.0448 9.20999C13.7996 9.51883 13.6387 9.72077 13.5061 9.86625C13.3765 10.0085 13.3157 10.0489 13.288 10.0637C13.0772 10.1764 12.8254 10.1819 12.6099 10.0785C12.5816 10.0649 12.5191 10.0272 12.3833 9.89068C12.2446 9.75109 12.0751 9.55635 11.8166 9.25847L11.8005 9.23987C11.5626 8.96569 11.3598 8.73188 11.1808 8.55184C10.9948 8.3647 10.7914 8.1901 10.5394 8.06918C9.89302 7.75898 9.13748 7.77541 8.50518 8.11342C8.25872 8.24518 8.06307 8.42845 7.88536 8.62351C7.71441 8.81115 7.52192 9.05355 7.29619 9.3378L4.16267 13.2836C3.90508 13.6079 3.95921 14.0797 4.28358 14.3373C4.60795 14.5949 5.07973 14.5408 5.33733 14.2164L8.45551 10.29C8.70077 9.98113 8.86164 9.7792 8.99418 9.63372C9.12382 9.49143 9.18466 9.45107 9.21235 9.43627C9.42311 9.3236 9.67496 9.31812 9.89042 9.42152C9.91873 9.4351 9.98127 9.47278 10.117 9.6093C10.2557 9.74888 10.4252 9.94362 10.6837 10.2415L10.6998 10.2601C10.9377 10.5343 11.1406 10.7681 11.3195 10.9481C11.5055 11.1353 11.7089 11.3099 11.9609 11.4308C12.6073 11.741 13.3629 11.7246 13.9952 11.3865C14.2416 11.2548 14.4373 11.0715 14.615 10.8764C14.7859 10.6888 14.9784 10.4464 15.2041 10.1622L18.3375 6.21641Z" fill="#44D991"/>
</svg>
