<svg width="48" height="48" viewBox="0 0 48 48" fill="none" xmlns="http://www.w3.org/2000/svg">
<path d="M39.9995 20C39.9995 29.986 28.9215 40.386 25.2015 43.598C24.855 43.8586 24.4331 43.9995 23.9995 43.9995C23.5659 43.9995 23.1441 43.8586 22.7975 43.598C19.0775 40.386 7.99951 29.986 7.99951 20C7.99951 15.7565 9.68522 11.6869 12.6858 8.68629C15.6864 5.68571 19.756 4 23.9995 4C28.243 4 32.3126 5.68571 35.3132 8.68629C38.3138 11.6869 39.9995 15.7565 39.9995 20Z" stroke="#507BFA" stroke-width="4" stroke-linecap="round" stroke-linejoin="round"/>
<path d="M23.9999 25.9995C27.3136 25.9995 29.9999 23.3132 29.9999 19.9995C29.9999 16.6858 27.3136 13.9995 23.9999 13.9995C20.6862 13.9995 17.9999 16.6858 17.9999 19.9995C17.9999 23.3132 20.6862 25.9995 23.9999 25.9995Z" stroke="#507BFA" stroke-width="4" stroke-linecap="round" stroke-linejoin="round"/>
</svg>
