<svg width="226" height="26" viewBox="0 0 226 26" fill="none" xmlns="http://www.w3.org/2000/svg">
<path d="M-7.15256e-07 1.12H6.432V23.52H-7.15256e-07V1.12ZM8.384 23.52H4.224V18.08H8.128C8.87467 18.08 9.6 18.0053 10.304 17.856C11.0293 17.6853 11.68 17.3973 12.256 16.992C12.832 16.5653 13.2907 15.9787 13.632 15.232C13.9947 14.464 14.176 13.4933 14.176 12.32C14.176 11.1467 13.9947 10.1867 13.632 9.44C13.2907 8.672 12.832 8.08533 12.256 7.68C11.68 7.25333 11.0293 6.96533 10.304 6.816C9.6 6.64533 8.87467 6.56 8.128 6.56H4.224V1.12H8.384C10.9227 1.12 13.0987 1.57867 14.912 2.496C16.7467 3.392 18.1547 4.672 19.136 6.336C20.1387 8 20.64 9.99467 20.64 12.32C20.64 14.624 20.1387 16.6187 19.136 18.304C18.1547 19.968 16.7467 21.2587 14.912 22.176C13.0987 23.072 10.9227 23.52 8.384 23.52ZM30.5287 13.216L29.2807 23.52H22.6887L26.5607 0L36.2887 12.896L46.0487 0L49.9207 23.52H43.3288L42.0807 13.216L36.2887 21.44L30.5287 13.216ZM52.834 21.088C52.834 20.1707 53.1433 19.392 53.762 18.752C54.402 18.0907 55.2233 17.76 56.226 17.76C57.2287 17.76 58.0393 18.0907 58.658 18.752C59.2767 19.392 59.586 20.1707 59.586 21.088C59.586 21.984 59.2767 22.7627 58.658 23.424C58.0393 24.064 57.2287 24.384 56.226 24.384C55.2233 24.384 54.402 24.064 53.762 23.424C53.1433 22.7627 52.834 21.984 52.834 21.088ZM179.389 12.576V9.984H183.005C183.581 9.984 184.061 9.89867 184.445 9.728C184.829 9.55733 185.117 9.312 185.309 8.992C185.523 8.672 185.629 8.288 185.629 7.84C185.629 7.15733 185.405 6.656 184.957 6.336C184.531 6.016 183.88 5.856 183.005 5.856H180.989V18.784H183.581C184.2 18.784 184.755 18.72 185.245 18.592C185.757 18.464 186.163 18.2293 186.461 17.888C186.76 17.5253 186.909 17.0133 186.909 16.352C186.909 15.9253 186.824 15.5733 186.653 15.296C186.483 15.0187 186.237 14.7947 185.917 14.624C185.619 14.4533 185.267 14.336 184.861 14.272C184.477 14.208 184.051 14.176 183.581 14.176H179.389V10.784H184.349C185.437 10.784 186.515 10.912 187.581 11.168C188.648 11.4027 189.619 11.7867 190.493 12.32C191.368 12.832 192.061 13.504 192.573 14.336C193.107 15.1467 193.373 16.128 193.373 17.28C193.373 18.7733 193.011 19.9787 192.285 20.896C191.56 21.8133 190.525 22.4853 189.181 22.912C187.837 23.3173 186.227 23.52 184.349 23.52H174.781V1.12H183.773C185.373 1.12 186.792 1.33333 188.029 1.76C189.288 2.18667 190.28 2.82667 191.005 3.68C191.731 4.512 192.093 5.568 192.093 6.848C192.093 8.064 191.731 9.10933 191.005 9.984C190.28 10.8373 189.288 11.488 188.029 11.936C186.792 12.3627 185.373 12.576 183.773 12.576H179.389ZM197.031 1.12H203.367V23.52H197.031V1.12ZM207.681 6.656V1.12H225.825L215.585 18.24H224.545V23.52H205.889L215.937 6.656H207.681Z" fill="#1950F3"/>
<path d="M73.5732 13.312L78.5012 1.12H85.7973L73.5732 25.024L61.3812 1.12H68.6772L73.5732 13.312ZM88 1.12H94.336V23.52H88V1.12ZM98.9375 1.12H105.369V23.52H98.9375V1.12ZM107.321 23.52H103.161V18.08H107.065C107.812 18.08 108.538 18.0053 109.241 17.856C109.967 17.6853 110.617 17.3973 111.193 16.992C111.769 16.5653 112.228 15.9787 112.569 15.232C112.932 14.464 113.114 13.4933 113.114 12.32C113.114 11.1467 112.932 10.1867 112.569 9.44C112.228 8.672 111.769 8.08533 111.193 7.68C110.617 7.25333 109.967 6.96533 109.241 6.816C108.538 6.64533 107.812 6.56 107.065 6.56H103.161V1.12H107.321C109.86 1.12 112.036 1.57867 113.85 2.496C115.684 3.392 117.092 4.672 118.073 6.336C119.076 8 119.577 9.99467 119.577 12.32C119.577 14.624 119.076 16.6187 118.073 18.304C117.092 19.968 115.684 21.2587 113.85 22.176C112.036 23.072 109.86 23.52 107.321 23.52ZM127.13 23.52V18.496H138.426V23.52H127.13ZM127.13 6.144V1.12H138.426V6.144H127.13ZM127.13 14.304V9.44H137.786V14.304H127.13ZM122.906 1.12H128.858V23.52H122.906V1.12ZM148.799 13.632H155.167L161.887 23.52H154.655L148.799 13.632ZM142.719 1.12H148.927V23.52H142.719V1.12ZM146.687 6.368V1.12H151.519C153.567 1.12 155.252 1.44 156.575 2.08C157.919 2.72 158.911 3.60533 159.551 4.736C160.212 5.84533 160.543 7.136 160.543 8.608C160.543 10.0587 160.212 11.36 159.551 12.512C158.911 13.6427 157.919 14.528 156.575 15.168C155.252 15.7867 153.567 16.096 151.519 16.096H146.687V11.392H151.007C151.668 11.392 152.223 11.296 152.671 11.104C153.119 10.912 153.46 10.624 153.695 10.24C153.951 9.856 154.079 9.39733 154.079 8.864C154.079 8.33067 153.951 7.88267 153.695 7.52C153.46 7.136 153.119 6.848 152.671 6.656C152.223 6.464 151.668 6.368 151.007 6.368H146.687ZM163.834 21.088C163.834 20.1707 164.143 19.392 164.762 18.752C165.402 18.0907 166.223 17.76 167.226 17.76C168.229 17.76 169.039 18.0907 169.658 18.752C170.277 19.392 170.586 20.1707 170.586 21.088C170.586 21.984 170.277 22.7627 169.658 23.424C169.039 24.064 168.229 24.384 167.226 24.384C166.223 24.384 165.402 24.064 164.762 23.424C164.143 22.7627 163.834 21.984 163.834 21.088Z" fill="white"/>
</svg>
