<svg width="39" height="39" viewBox="0 0 39 39" fill="none" xmlns="http://www.w3.org/2000/svg">
<path d="M19.4998 11.5008V37.5008M19.4998 11.5008C20.2232 8.51964 21.4684 5.971 23.0738 4.1872C24.6793 2.40339 26.5699 1.46726 28.4993 1.50087C29.8254 1.50087 31.0972 2.02766 32.0349 2.96534C32.9725 3.90302 33.4993 5.17479 33.4993 6.50087C33.4993 7.82696 32.9725 9.09873 32.0349 10.0364C31.0972 10.9741 29.8254 11.5009 28.4993 11.5009M19.4998 11.5008C18.7763 8.51964 17.5302 5.971 15.9248 4.1872C14.3194 2.40339 12.4287 1.46726 10.4993 1.50087C9.17323 1.50087 7.90147 2.02766 6.96378 2.96534C6.0261 3.90302 5.49932 5.17479 5.49932 6.50087C5.49932 7.82696 6.0261 9.09873 6.96378 10.0364C7.90147 10.9741 9.17323 11.5009 10.4993 11.5009M5.49932 19.5009V33.5009C5.49932 34.5617 5.92075 35.5792 6.67089 36.3293C7.42104 37.0794 8.43845 37.5009 9.49932 37.5009H29.4993C30.5602 37.5009 31.5776 37.0794 32.3277 36.3293C33.0779 35.5792 33.4993 34.5617 33.4993 33.5009V19.5009M35.5 11.5008H3.5C2.39543 11.5008 1.5 12.3963 1.5 13.5008V17.5008C1.5 18.6054 2.39543 19.5008 3.5 19.5008H35.5C36.6046 19.5008 37.5 18.6054 37.5 17.5008V13.5008C37.5 12.3963 36.6046 11.5008 35.5 11.5008Z" stroke="white" stroke-width="3" stroke-linecap="round" stroke-linejoin="round"/>
</svg>
