<svg width="22" height="13" viewBox="0 0 22 13" fill="none" xmlns="http://www.w3.org/2000/svg">
<path fill-rule="evenodd" clip-rule="evenodd" d="M14.4179 0.75C14.4179 0.335786 14.7536 0 15.1679 0H20.75C21.1642 0 21.5 0.335786 21.5 0.75V6.29583C21.5 6.71005 21.1642 7.04583 20.75 7.04583C20.3358 7.04583 20 6.71005 20 6.29583V2.55286L13.8642 8.65129C13.3952 9.11744 12.991 9.51923 12.6239 9.79771C12.2304 10.0962 11.7932 10.322 11.255 10.322C10.7168 10.3219 10.2797 10.096 9.88624 9.7974C9.51923 9.51884 9.11512 9.11697 8.64629 8.65072L8.37203 8.37801C7.85787 7.86675 7.52452 7.53751 7.24695 7.32686C6.98672 7.12937 6.86506 7.10734 6.78449 7.10737C6.70393 7.1074 6.58228 7.12952 6.32219 7.3272C6.04478 7.53805 5.71167 7.86753 5.19789 8.37917L1.27922 12.2814C0.985711 12.5737 0.510838 12.5727 0.218559 12.2792C-0.0737192 11.9857 -0.0727238 11.5108 0.220783 11.2186L4.17433 7.28155C4.64326 6.81453 5.04742 6.41202 5.41452 6.133C5.80802 5.83391 6.24535 5.60756 6.78395 5.60737C7.32254 5.60717 7.76003 5.8332 8.15375 6.13199C8.52105 6.41074 8.9255 6.81296 9.39477 7.27963L9.66903 7.55235C10.1827 8.06316 10.5158 8.39209 10.7931 8.60257C11.0531 8.79989 11.1747 8.82197 11.2552 8.82198C11.3357 8.82199 11.4573 8.79994 11.7173 8.60268C11.9947 8.39226 12.3278 8.06341 12.8416 7.55272L18.9315 1.5H15.1679C14.7536 1.5 14.4179 1.16421 14.4179 0.75Z" fill="#77DDAC"/>
</svg>
