<svg width="35" height="37" viewBox="0 0 35 37" fill="none" xmlns="http://www.w3.org/2000/svg">
<path d="M4.98447 0.114225C4.42396 0.346396 4.0585 0.893351 4.0585 1.50004V9.98532C4.0585 10.8138 4.73007 11.4853 5.5585 11.4853H14.0438C14.6505 11.4853 15.1974 11.1199 15.4296 10.5594C15.6618 9.99884 15.5334 9.35366 15.1044 8.92466L11.8984 5.71866C17.165 3.51589 23.4678 4.55945 27.7529 8.84461C33.4155 14.5072 33.4155 23.6881 27.7529 29.3507C22.0903 35.0133 12.9094 35.0133 7.24683 29.3507C3.95441 26.0583 2.57538 21.5779 3.11287 17.285C3.21579 16.463 2.63286 15.7132 1.81084 15.6103C0.988838 15.5074 0.239033 16.0903 0.136112 16.9123C-0.511463 22.0844 1.15063 27.4971 5.12551 31.472C11.9597 38.3062 23.0401 38.3062 29.8742 31.472C36.7084 24.6378 36.7084 13.5575 29.8742 6.72329C24.3975 1.24654 16.1969 0.160056 9.63799 3.45822L6.61916 0.439384C6.19016 0.0103866 5.54498 -0.117947 4.98447 0.114225Z" fill="#507BFA"/>
</svg>
