<svg width="43" height="38" viewBox="0 0 43 38" fill="none" xmlns="http://www.w3.org/2000/svg">
<path fill-rule="evenodd" clip-rule="evenodd" d="M8.74871 3.77985C5.43074 5.29651 3 8.90393 3 13.2057C3 17.6005 4.79843 20.9879 7.37657 23.891C9.50145 26.2837 12.0737 28.2667 14.5823 30.2007C15.1781 30.66 15.7703 31.1166 16.3521 31.5752C17.4042 32.4046 18.3426 33.1325 19.2472 33.6611C20.1523 34.19 20.8808 34.4315 21.5 34.4315C22.1192 34.4315 22.8477 34.19 23.7528 33.6611C24.6574 33.1325 25.5958 32.4046 26.6479 31.5752C27.2297 31.1166 27.8219 30.66 28.4177 30.2007C30.9263 28.2667 33.4986 26.2837 35.6234 23.891C38.2016 20.9879 40 17.6005 40 13.2057C40 8.90393 37.5693 5.29651 34.2513 3.77985C31.0279 2.30642 26.6967 2.69662 22.5807 6.97293C22.298 7.26672 21.9078 7.43273 21.5 7.43273C21.0922 7.43273 20.702 7.26672 20.4193 6.97293C16.3033 2.69662 11.9721 2.30642 8.74871 3.77985ZM21.5 3.84909C16.8759 -0.288054 11.6979 -0.866798 7.50153 1.05139C3.06943 3.07731 0 7.78153 0 13.2057C0 18.5367 2.22099 22.6036 5.13343 25.8831C7.46575 28.5093 10.3204 30.7074 12.8417 32.6486C13.4132 33.0887 13.9676 33.5155 14.4948 33.9312C15.5193 34.7388 16.6191 35.6 17.7336 36.2513C18.8477 36.9023 20.1192 37.4315 21.5 37.4315C22.8808 37.4315 24.1523 36.9023 25.2664 36.2513C26.3809 35.6 27.4807 34.7388 28.5052 33.9312C29.0324 33.5155 29.5868 33.0887 30.1583 32.6486C32.6796 30.7074 35.5343 28.5093 37.8666 25.8831C40.779 22.6036 43 18.5367 43 13.2057C43 7.78153 39.9306 3.07731 35.4985 1.05139C31.3021 -0.866798 26.1241 -0.288054 21.5 3.84909Z" fill="#44D991"/>
</svg>
