<svg width="39" height="43" viewBox="0 0 39 43" fill="none" xmlns="http://www.w3.org/2000/svg">
<path fill-rule="evenodd" clip-rule="evenodd" d="M19.5 3C18.1845 3 16.8903 3.42327 13.6612 4.52859L12.5156 4.92074C9.49042 5.95628 7.28419 6.71209 5.73519 7.34137C4.96201 7.65548 4.4018 7.91869 4.00857 8.14706C3.81444 8.2598 3.68067 8.35283 3.59134 8.42545C3.51559 8.48703 3.48672 8.52189 3.48258 8.52697C3.47872 8.53325 3.45386 8.57481 3.41886 8.67307C3.37889 8.78529 3.33458 8.94618 3.29143 9.17011C3.20408 9.62338 3.13789 10.246 3.09216 11.0858C3.00055 12.7682 3 15.1167 3 18.3333V21.4827C3 31.8329 10.7398 36.9269 15.8976 39.18C16.6405 39.5045 17.0696 39.6882 17.5472 39.8105C18.0034 39.9273 18.56 40 19.5 40C20.44 40 20.9966 39.9273 21.4528 39.8105C21.9304 39.6882 22.3595 39.5045 23.1024 39.18C28.2602 36.9269 36 31.8329 36 21.4827V18.3333C36 15.1167 35.9994 12.7682 35.9078 11.0858C35.8621 10.246 35.7959 9.62338 35.7086 9.17011C35.6654 8.94618 35.6211 8.78529 35.5811 8.67307C35.5461 8.57474 35.5212 8.53319 35.5174 8.52696C35.5132 8.52183 35.4843 8.48698 35.4087 8.42545C35.3193 8.35283 35.1856 8.2598 34.9914 8.14706C34.5982 7.91869 34.038 7.65548 33.2648 7.34137C31.7158 6.71209 29.5096 5.95628 26.4844 4.92075L25.3388 4.52859C22.1097 3.42327 20.8155 3 19.5 3ZM12.9468 1.60223C15.8346 0.613165 17.625 0 19.5 0C21.375 0 23.1654 0.613167 26.0532 1.60223C26.138 1.63126 26.2237 1.66061 26.3103 1.69027L27.5081 2.10027C30.4707 3.11439 32.7572 3.89705 34.3939 4.56197C35.2184 4.89692 35.9273 5.22134 36.498 5.55281C37.0473 5.87181 37.5984 6.26968 37.9727 6.80308C38.3428 7.33032 38.5341 7.97849 38.6544 8.60244C38.7794 9.25112 38.8548 10.0293 38.9034 10.9227C39 12.6968 39 15.1272 39 18.2796V21.4827C39 33.6848 29.7839 39.535 24.3033 41.9291L24.2491 41.9528C23.5695 42.2498 22.9308 42.5289 22.1968 42.7168C21.4219 42.9152 20.5985 43 19.5 43C18.4015 43 17.5781 42.9152 16.8032 42.7168C16.0692 42.5289 15.4305 42.2498 14.7509 41.9528L14.6967 41.9291C9.21605 39.535 3.50433e-08 33.6848 3.50433e-08 21.4827V18.2798C-3.0644e-06 15.1273 -5.44637e-06 12.6968 0.0965977 10.9227C0.145248 10.0293 0.220624 9.25112 0.345628 8.60244C0.465868 7.97849 0.657209 7.33032 1.02726 6.80308C1.40164 6.26968 1.95269 5.87181 2.50196 5.55281C3.07273 5.22134 3.78157 4.89692 4.60606 4.56197C6.24281 3.89705 8.52925 3.11439 11.4919 2.10027L12.6897 1.69027C12.7763 1.66061 12.862 1.63126 12.9468 1.60223ZM19.5 13.301C19.2621 13.654 18.969 14.1743 18.5327 14.9571L18.2706 15.4273C18.2511 15.4623 18.231 15.4987 18.2102 15.5365C17.9931 15.9311 17.6981 16.4672 17.2109 16.837C16.7148 17.2136 16.1165 17.3453 15.6887 17.4395C15.6481 17.4484 15.609 17.457 15.5717 17.4655L15.0627 17.5806C14.1323 17.7911 13.5525 17.9259 13.1629 18.0621C13.4038 18.424 13.8082 18.902 14.4641 19.6691L14.8111 20.0749C14.8367 20.1047 14.8633 20.1356 14.8907 20.1673C15.1862 20.5094 15.5793 20.9645 15.761 21.5488C15.9408 22.127 15.88 22.7252 15.8334 23.1824C15.8291 23.2251 15.8249 23.2666 15.821 23.3067L15.7685 23.8482C15.6748 24.8155 15.617 25.4412 15.6187 25.8838C16.0031 25.7476 16.5296 25.5084 17.3332 25.1384L17.8098 24.919C17.8449 24.9028 17.8816 24.8856 17.9199 24.8677C18.3156 24.6826 18.8769 24.4199 19.5 24.4199C20.1231 24.4199 20.6844 24.6826 21.0801 24.8677C21.1184 24.8856 21.1551 24.9028 21.1902 24.919L21.6668 25.1384C22.4704 25.5084 22.9969 25.7476 23.3813 25.8838C23.383 25.4412 23.3252 24.8155 23.2315 23.8482L23.179 23.3067C23.1751 23.2666 23.1709 23.2251 23.1666 23.1825C23.12 22.7252 23.0592 22.127 23.239 21.5488C23.4207 20.9645 23.8138 20.5094 24.1093 20.1673C24.1367 20.1356 24.1633 20.1047 24.1889 20.0749L24.5359 19.6691C25.1918 18.902 25.5962 18.424 25.8371 18.0621C25.4475 17.9259 24.8677 17.7911 23.9373 17.5806L23.4283 17.4655C23.391 17.457 23.3519 17.4484 23.3113 17.4395C22.8835 17.3453 22.2852 17.2136 21.7891 16.837C21.3019 16.4672 21.0069 15.9311 20.7898 15.5365C20.769 15.4987 20.7489 15.4623 20.7294 15.4273L20.4673 14.9571C20.031 14.1743 19.7379 13.654 19.5 13.301ZM23.8059 26.0004C23.8081 26.0005 23.8093 26.0006 23.8093 26.0006L23.8059 26.0004ZM15.1907 26.0006C15.1907 26.0006 15.1919 26.0005 15.1941 26.0004L15.1907 26.0006ZM17.2663 11.2697C17.6976 10.7064 18.4019 10 19.5 10C20.5981 10 21.3024 10.7064 21.7337 11.2697C22.1491 11.8121 22.5742 12.575 23.0366 13.4048C23.0536 13.4352 23.0706 13.4657 23.0877 13.4963L23.3498 13.9666C23.4234 14.0987 23.4804 14.2007 23.5309 14.2882C23.5649 14.347 23.5915 14.3915 23.613 14.4257C23.6466 14.435 23.6892 14.4461 23.7437 14.4593C23.8377 14.4822 23.9471 14.507 24.0903 14.5394L24.5994 14.6546C24.6341 14.6625 24.6687 14.6703 24.7033 14.6781C25.5971 14.8802 26.4313 15.0688 27.0613 15.317C27.7439 15.586 28.5686 16.0709 28.8864 17.0928C29.1991 18.0983 28.8141 18.9664 28.4252 19.5842C28.0599 20.1646 27.4958 20.824 26.8831 21.5403C26.8608 21.5664 26.8384 21.5926 26.8159 21.6188L26.4689 22.0247C26.3714 22.1387 26.2963 22.2266 26.2324 22.3036C26.1801 22.3668 26.1439 22.4124 26.1181 22.4468C26.1214 22.5582 26.1357 22.715 26.165 23.0174L26.2274 23.6607C26.3204 24.6192 26.4053 25.494 26.3746 26.183C26.3427 26.8989 26.1738 27.8569 25.3228 28.5029C24.4474 29.1675 23.4693 29.0379 22.7756 28.8391C22.1263 28.6531 21.3462 28.2937 20.5097 27.9084C20.4773 27.8935 20.4447 27.8785 20.4121 27.8634L19.9355 27.644C19.8014 27.5823 19.6988 27.5351 19.6097 27.4958C19.5658 27.4764 19.5298 27.461 19.5 27.4488C19.4702 27.461 19.4342 27.4764 19.3903 27.4958C19.3012 27.5351 19.1986 27.5823 19.0645 27.644L18.5879 27.8634C18.5553 27.8785 18.5227 27.8935 18.4903 27.9084C17.6538 28.2937 16.8737 28.6531 16.2244 28.8391C15.5307 29.0379 14.5526 29.1675 13.6772 28.5029C12.8262 27.8569 12.6573 26.8989 12.6254 26.183C12.5947 25.494 12.6796 24.6192 12.7726 23.6607C12.7759 23.6269 12.7792 23.5929 12.7825 23.5588L12.835 23.0174C12.8643 22.715 12.8786 22.5582 12.8819 22.4468C12.8561 22.4124 12.8199 22.3668 12.7676 22.3036C12.7037 22.2266 12.6286 22.1387 12.5311 22.0247L12.1841 21.6188C12.1616 21.5926 12.1392 21.5664 12.1169 21.5402C11.5041 20.8239 10.9401 20.1646 10.5748 19.5842C10.1859 18.9664 9.8009 18.0983 10.1136 17.0928C10.4314 16.0709 11.2561 15.586 11.9387 15.317C12.5687 15.0688 13.4029 14.8802 14.2967 14.6781C14.3313 14.6703 14.3659 14.6625 14.4006 14.6546L14.9097 14.5394C15.0529 14.507 15.1623 14.4822 15.2563 14.4593C15.3108 14.4461 15.3534 14.435 15.387 14.4257C15.4085 14.3915 15.4351 14.347 15.4691 14.2882C15.5197 14.2007 15.5766 14.0987 15.6502 13.9666L15.9123 13.4963C15.9294 13.4657 15.9464 13.4352 15.9634 13.4048C16.4258 12.575 16.8509 11.8121 17.2663 11.2697Z" fill="#507BFA"/>
</svg>
